<svg xmlns="http://www.w3.org/2000/svg" xmlns:xlink="http://www.w3.org/1999/xlink" width="1342" zoomAndPan="magnify" viewBox="0 0 1006.5 1289.99994" height="1720" preserveAspectRatio="xMidYMid meet" version="1.2"><defs><clipPath id="0d11151da8"><path d="M 63.195312 205.207031 L 942.671875 205.207031 L 942.671875 1084.679688 L 63.195312 1084.679688 Z M 63.195312 205.207031 "/></clipPath><clipPath id="e713afdaba"><path d="M 502.933594 205.207031 C 260.074219 205.207031 63.195312 402.082031 63.195312 644.941406 C 63.195312 887.800781 260.074219 1084.679688 502.933594 1084.679688 C 745.792969 1084.679688 942.671875 887.800781 942.671875 644.941406 C 942.671875 402.082031 745.792969 205.207031 502.933594 205.207031 Z M 502.933594 205.207031 "/></clipPath><clipPath id="c49442d820"><path d="M 653 597 L 1006 597 L 1006 1090 L 653 1090 Z M 653 597 "/></clipPath><clipPath id="23b8dc01fa"><path d="M 624 181 L 1006 181 L 1006 776 L 624 776 Z M 624 181 "/></clipPath><clipPath id="07b3757c87"><path d="M 497.199219 613.15625 L 508.785156 613.15625 L 508.785156 624.746094 L 497.199219 624.746094 Z M 497.199219 613.15625 "/></clipPath><clipPath id="95b114a625"><path d="M 502.992188 613.15625 C 499.792969 613.15625 497.199219 615.75 497.199219 618.953125 C 497.199219 622.152344 499.792969 624.746094 502.992188 624.746094 C 506.191406 624.746094 508.785156 622.152344 508.785156 618.953125 C 508.785156 615.75 506.191406 613.15625 502.992188 613.15625 Z M 502.992188 613.15625 "/></clipPath><clipPath id="49a15e7b10"><path d="M 342.265625 865.957031 L 353.855469 865.957031 L 353.855469 877.546875 L 342.265625 877.546875 Z M 342.265625 865.957031 "/></clipPath><clipPath id="26d31843b3"><path d="M 348.0625 865.957031 C 344.859375 865.957031 342.265625 868.550781 342.265625 871.75 C 342.265625 874.953125 344.859375 877.546875 348.0625 877.546875 C 351.261719 877.546875 353.855469 874.953125 353.855469 871.75 C 353.855469 868.550781 351.261719 865.957031 348.0625 865.957031 Z M 348.0625 865.957031 "/></clipPath><clipPath id="aff20c5c59"><path d="M 634.835938 865.957031 L 646.425781 865.957031 L 646.425781 877.546875 L 634.835938 877.546875 Z M 634.835938 865.957031 "/></clipPath><clipPath id="73c439b177"><path d="M 640.628906 865.957031 C 637.429688 865.957031 634.835938 868.550781 634.835938 871.75 C 634.835938 874.953125 637.429688 877.546875 640.628906 877.546875 C 643.828125 877.546875 646.425781 874.953125 646.425781 871.75 C 646.425781 868.550781 643.828125 865.957031 640.628906 865.957031 Z M 640.628906 865.957031 "/></clipPath></defs><g id="36d1cb59e2"><g clip-rule="nonzero" clip-path="url(#0d11151da8)"><g clip-rule="nonzero" clip-path="url(#e713afdaba)"><path style="fill:none;stroke-width:54;stroke-linecap:butt;stroke-linejoin:miter;stroke:#000000;stroke-opacity:1;stroke-miterlimit:4;" d="M 586.569626 0.002545 C 262.616715 0.002545 -0.00231994 262.61637 -0.00231994 586.56928 C -0.00231994 910.522191 262.616715 1173.141226 586.569626 1173.141226 C 910.522537 1173.141226 1173.141572 910.522191 1173.141572 586.56928 C 1173.141572 262.61637 910.522537 0.002545 586.569626 0.002545 Z M 586.569626 0.002545 " transform="matrix(0.749675,0,0,0.749675,63.197052,205.205123)"/></g></g><path style="fill:none;stroke-width:19;stroke-linecap:butt;stroke-linejoin:miter;stroke:#000000;stroke-opacity:1;stroke-miterlimit:4;" d="M 0.0021872 9.499183 L 210.071085 9.50019 " transform="matrix(0.440831,-0.606202,0.606202,0.440831,249.666393,994.942699)"/><path style="fill:none;stroke-width:19;stroke-linecap:butt;stroke-linejoin:miter;stroke:#000000;stroke-opacity:1;stroke-miterlimit:4;" d="M 0.00117057 9.499297 L 472.549359 9.499139 " transform="matrix(-0.385534,-0.643048,0.643048,-0.385534,249.317729,1002.795869)"/><path style="fill:none;stroke-width:19;stroke-linecap:butt;stroke-linejoin:miter;stroke:#000000;stroke-opacity:1;stroke-miterlimit:4;" d="M -0.00122194 9.500945 L 335.854965 9.500509 " transform="matrix(0.433267,0.611904,-0.611904,0.433267,353.872794,867.638209)"/><path style="fill:none;stroke-width:19;stroke-linecap:butt;stroke-linejoin:miter;stroke:#000000;stroke-opacity:1;stroke-miterlimit:4;" d="M -0.00074909 9.50205 L 329.894367 9.49936 " transform="matrix(0.417219,-0.622957,0.622957,0.417219,497.073128,1073.29682)"/><path style="fill:none;stroke-width:19;stroke-linecap:butt;stroke-linejoin:miter;stroke:#000000;stroke-opacity:1;stroke-miterlimit:4;" d="M 0.0017501 9.500523 L 233.185861 9.499717 " transform="matrix(-0.431256,-0.612648,0.612648,-0.431256,735.434187,1018.813072)"/><g clip-rule="nonzero" clip-path="url(#c49442d820)"><path style="fill:none;stroke-width:19;stroke-linecap:butt;stroke-linejoin:miter;stroke:#000000;stroke-opacity:1;stroke-miterlimit:4;" d="M -0.0015882 9.49875 L 515.168094 9.499859 " transform="matrix(0.388956,-0.640718,0.640718,0.388956,728.457565,1004.851264)"/></g><path style="fill:none;stroke-width:19;stroke-linecap:butt;stroke-linejoin:miter;stroke:#000000;stroke-opacity:1;stroke-miterlimit:4;" d="M 0.00212163 9.501288 L 651.243044 9.500847 " transform="matrix(0.345417,-0.665154,0.665154,0.345417,66.921633,691.97732)"/><g clip-rule="nonzero" clip-path="url(#23b8dc01fa)"><path style="fill:none;stroke-width:19;stroke-linecap:butt;stroke-linejoin:miter;stroke:#000000;stroke-opacity:1;stroke-miterlimit:4;" d="M 0.00270693 9.500096 L 654.03179 9.501474 " transform="matrix(0.350945,0.662539,-0.662539,0.350945,711.742453,258.601695)"/></g><path style="fill:none;stroke-width:19;stroke-linecap:butt;stroke-linejoin:miter;stroke:#000000;stroke-opacity:1;stroke-miterlimit:4;" d="M -0.00103126 9.497185 L 548.905213 9.50131 " transform="matrix(0.372955,0.650424,-0.650424,0.372955,304.451021,258.392238)"/><path style="fill:none;stroke-width:19;stroke-linecap:butt;stroke-linejoin:miter;stroke:#000000;stroke-opacity:1;stroke-miterlimit:4;" d="M 0.000715889 9.4973 L 547.413747 9.502653 " transform="matrix(0.369573,-0.651712,0.651712,0.369573,496.794602,615.435835)"/><path style="fill:none;stroke-width:19;stroke-linecap:butt;stroke-linejoin:miter;stroke:#000000;stroke-opacity:1;stroke-miterlimit:4;" d="M 0.0000109305 9.50062 L 105.76234 9.50062 " transform="matrix(0.749765,0,0,0.749765,87.964836,508.658019)"/><path style="fill:none;stroke-width:19;stroke-linecap:butt;stroke-linejoin:miter;stroke:#000000;stroke-opacity:1;stroke-miterlimit:4;" d="M -0.00177024 9.50062 L 156.979743 9.50062 " transform="matrix(0.749765,0,0,0.749765,444.231796,508.658019)"/><path style="fill:none;stroke-width:19;stroke-linecap:butt;stroke-linejoin:miter;stroke:#000000;stroke-opacity:1;stroke-miterlimit:4;" d="M -0.00101414 9.50062 L 103.609598 9.50062 " transform="matrix(0.749765,0.000000000000000823,-0.000000000000000823,0.749765,840.668729,508.658019)"/><path style="fill:none;stroke-width:19;stroke-linecap:butt;stroke-linejoin:miter;stroke:#000000;stroke-opacity:1;stroke-miterlimit:4;" d="M -0.000621854 9.498002 L 107.466698 9.500936 " transform="matrix(0.436923,0.605405,-0.605405,0.436923,93.738688,511.61611)"/><path style="fill:none;stroke-width:19;stroke-linecap:butt;stroke-linejoin:miter;stroke:#000000;stroke-opacity:1;stroke-miterlimit:4;" d="M 0.00136967 9.497941 L 111.009616 9.501249 " transform="matrix(-0.374882,0.649315,-0.649315,-0.374882,924.515329,519.344878)"/><g clip-rule="nonzero" clip-path="url(#07b3757c87)"><g clip-rule="nonzero" clip-path="url(#95b114a625)"><path style=" stroke:none;fill-rule:nonzero;fill:#000000;fill-opacity:1;" d="M 497.199219 613.15625 L 508.785156 613.15625 L 508.785156 624.746094 L 497.199219 624.746094 Z M 497.199219 613.15625 "/></g></g><g clip-rule="nonzero" clip-path="url(#49a15e7b10)"><g clip-rule="nonzero" clip-path="url(#26d31843b3)"><path style=" stroke:none;fill-rule:nonzero;fill:#000000;fill-opacity:1;" d="M 342.265625 865.957031 L 353.855469 865.957031 L 353.855469 877.546875 L 342.265625 877.546875 Z M 342.265625 865.957031 "/></g></g><g clip-rule="nonzero" clip-path="url(#aff20c5c59)"><g clip-rule="nonzero" clip-path="url(#73c439b177)"><path style=" stroke:none;fill-rule:nonzero;fill:#000000;fill-opacity:1;" d="M 634.835938 865.957031 L 646.425781 865.957031 L 646.425781 877.546875 L 634.835938 877.546875 Z M 634.835938 865.957031 "/></g></g></g></svg>